<svg   id="chart"   width="1000"   height="500"   viewBox="0 0 1000 500"   xmlns="http://www.w3.org/2000/svg" >      <path d="M 0,496.02194313447137 C 10.6,493.4385045960564 31.8,489.7502599569728 53,483.10475044239655 C 74.2,476.4592409278203 84.8,474.7177469407961 106,462.79439556159 C 127.2,450.87104418238397 137.8,436.6010705450178 159,423.48799354636617 C 180.2,410.3749165477145 190.8,398.0517700986452 212,397.2290105683318 C 233.2,396.40625103801835 243.79999999999998,429.70685373510383 265,419.374195894799 C 286.2,409.0415380544942 296.8,360.22495765012457 318,345.5657213668078 C 339.2,330.906485083491 349.8,339.88585429897626 371,346.0780144782152 C 392.2,352.27017465745416 402.8,386.2583998691973 424,376.5265222630027 C 445.2,366.79464465680803 455.8,320.48294863813294 477,297.4186264472419 C 498.2,274.3543042563508 508.8,263.4939748711248 530,261.2049113085475 C 551.2,258.91584774597015 561.8,298.2601531770923 583,285.97330863435513 C 604.2,273.68646409161795 614.8,202.20753424778283 636,199.7706885948616 C 657.2,197.33384294194042 667.8,274.2743117804307 689,273.7890803697491 C 710.2,273.3038489590675 720.8,220.26855313698337 742,197.34453154145376 C 763.2,174.42050994592415 773.8,177.3873886358423 795,159.16897239210107 C 816.2,140.95055614835982 826.8,102.17904828977544 848,106.25245032274756 C 869.2,110.32585235571969 879.8,178.07834571320865 901,179.5359825569617 C 922.2,180.99361940071475 932.8,141.09331426354308 954,113.54063454151276 C 975.2,85.98795481948245 996.4,56.1261940657507 1007,41.77258394681019,L 1000 500,L 0 500Z" fill="#444cf71a" />   <path d="M 0,496.02194313447137 C 10.6,493.4385045960564 31.8,489.7502599569728 53,483.10475044239655 C 74.2,476.4592409278203 84.8,474.7177469407961 106,462.79439556159 C 127.2,450.87104418238397 137.8,436.6010705450178 159,423.48799354636617 C 180.2,410.3749165477145 190.8,398.0517700986452 212,397.2290105683318 C 233.2,396.40625103801835 243.79999999999998,429.70685373510383 265,419.374195894799 C 286.2,409.0415380544942 296.8,360.22495765012457 318,345.5657213668078 C 339.2,330.906485083491 349.8,339.88585429897626 371,346.0780144782152 C 392.2,352.27017465745416 402.8,386.2583998691973 424,376.5265222630027 C 445.2,366.79464465680803 455.8,320.48294863813294 477,297.4186264472419 C 498.2,274.3543042563508 508.8,263.4939748711248 530,261.2049113085475 C 551.2,258.91584774597015 561.8,298.2601531770923 583,285.97330863435513 C 604.2,273.68646409161795 614.8,202.20753424778283 636,199.7706885948616 C 657.2,197.33384294194042 667.8,274.2743117804307 689,273.7890803697491 C 710.2,273.3038489590675 720.8,220.26855313698337 742,197.34453154145376 C 763.2,174.42050994592415 773.8,177.3873886358423 795,159.16897239210107 C 816.2,140.95055614835982 826.8,102.17904828977544 848,106.25245032274756 C 869.2,110.32585235571969 879.8,178.07834571320865 901,179.5359825569617 C 922.2,180.99361940071475 932.8,141.09331426354308 954,113.54063454151276 C 975.2,85.98795481948245 996.4,56.1261940657507 1007,41.77258394681019" fill="none" stroke="#444cf7" stroke-width="4px" />   <g>   <circle cx="0" cy="496.02194313447137" r="8" fill="#444cf7" />,<circle cx="53" cy="483.10475044239655" r="8" fill="#444cf7" />,<circle cx="106" cy="462.79439556159" r="8" fill="#444cf7" />,<circle cx="159" cy="423.48799354636617" r="8" fill="#444cf7" />,<circle cx="212" cy="397.2290105683318" r="8" fill="#444cf7" />,<circle cx="265" cy="419.374195894799" r="8" fill="#444cf7" />,<circle cx="318" cy="345.5657213668078" r="8" fill="#444cf7" />,<circle cx="371" cy="346.0780144782152" r="8" fill="#444cf7" />,<circle cx="424" cy="376.5265222630027" r="8" fill="#444cf7" />,<circle cx="477" cy="297.4186264472419" r="8" fill="#444cf7" />,<circle cx="530" cy="261.2049113085475" r="8" fill="#444cf7" />,<circle cx="583" cy="285.97330863435513" r="8" fill="#444cf7" />,<circle cx="636" cy="199.7706885948616" r="8" fill="#444cf7" />,<circle cx="689" cy="273.7890803697491" r="8" fill="#444cf7" />,<circle cx="742" cy="197.34453154145376" r="8" fill="#444cf7" />,<circle cx="795" cy="159.16897239210107" r="8" fill="#444cf7" />,<circle cx="848" cy="106.25245032274756" r="8" fill="#444cf7" />,<circle cx="901" cy="179.5359825569617" r="8" fill="#444cf7" />,<circle cx="954" cy="113.54063454151276" r="8" fill="#444cf7" />,<circle cx="1007" cy="41.77258394681019" r="8" fill="#444cf7" />   </g> </svg>